<svg height="121" viewBox="0 0 120 121" width="120" xmlns="http://www.w3.org/2000/svg">
  <g fill="none" fill-rule="evenodd" transform="translate(-32 -58)">
    <ellipse cx="100" cy="108.699609" fill="#cbe9e7" rx="100" ry="108.699609" />
    <path fill="#a1dad4"
      transform="matrix(.93969262 .34202014 -.34202014 .93969262 58.182395 -25.094768)"
      d="m28.1571781 187.963819 122.2072389-99.40529 21.980301 94.043199-41.673757 33.713734-81.6139751-.629298z" />
    <path
      d="m28.1571783 187.963819 129.4453507-69.191876 14.742189 63.829785-41.673756 33.713734-81.6139759-.629298z"
      fill="#b2e1dd"
      transform="matrix(.93969262 .34202014 -.34202014 .93969262 63.349193 -24.183722)" />
    <g transform="translate(75.952648 100.010397)">
      <path d="m5.166674 8.361611h24.928441v8.48643h-24.928441z" fill="#93cfca" />
      <path d="m12.722579 26.692081h9.299766v12.624601h-9.299766z" fill="#93cfca" />
      <g stroke="#1ea69a" stroke-width="1.5">
        <path d="m10.559841 24.494298h9.114414v12.237415h-9.114414z" />
        <path d="m2.873143 0h24.487809v36.731713h-24.487809z" />
        <g fill="#fff">
          <path d="m.2397729 6.51179044h29.8576851" />
          <path d="m.2397729 14.5704364h29.8576851" />
        </g>
      </g>
    </g>
  </g>
</svg>