<svg height="241" viewBox="0 0 306 241" width="306" xmlns="http://www.w3.org/2000/svg"
  xmlns:xlink="http://www.w3.org/1999/xlink">
  <defs>
    <path id="a"
      d="m0 6.00240548c0-3.31503701 2.69192786-6.00240548 6.00942483-6.00240548h293.98115017c3.318914 0 6.009425 2.68589549 6.009425 6.00240548v234.99759452h-306z" />
    <path id="b" d="m99.796647 131.715963h106.406706v12.568075h-106.406706z" />
    <mask id="c" fill="#fff" height="12.568075" width="106.406706" x="0" y="0">
      <use xlink:href="#b" />
    </mask>
    <rect id="d" height="58.976772" rx="12" width="24" x="164.5" y="157.789266" />
    <mask id="e" fill="#fff" height="58.976772" width="24" x="0" y="0">
      <use xlink:href="#d" />
    </mask>
    <rect id="f" height="60" rx="12" width="24" x="118.412945" y="157.789266" />
    <mask id="g" fill="#fff" height="60" width="24" x="0" y="0">
      <use xlink:href="#f" />
    </mask>
    <rect id="h" height="6" rx="3" width="21" x="143" y="169" />
    <mask id="i" fill="#fff" height="6" width="21" x="0" y="0">
      <use xlink:href="#h" />
    </mask>
    <rect id="j" height="6" rx="3" width="21" x="97" y="169" />
    <mask id="k" fill="#fff" height="6" width="21" x="0" y="0">
      <use xlink:href="#j" />
    </mask>
    <rect id="l" height="6" rx="3" width="21" x="190" y="169" />
    <mask id="m" fill="#fff" height="6" width="21" x="0" y="0">
      <use xlink:href="#l" />
    </mask>
    <rect id="n" height="6" rx="3" width="21" x="143" y="177" />
    <mask id="o" fill="#fff" height="6" width="21" x="0" y="0">
      <use xlink:href="#n" />
    </mask>
    <rect id="p" height="6" rx="3" width="21" x="97" y="177" />
    <mask id="q" fill="#fff" height="6" width="21" x="0" y="0">
      <use xlink:href="#p" />
    </mask>
    <rect id="r" height="6" rx="3" width="21" x="190" y="177" />
    <mask id="s" fill="#fff" height="6" width="21" x="0" y="0">
      <use xlink:href="#r" />
    </mask>
    <mask id="t" fill="#fff">
      <use fill="#fff" fill-rule="evenodd" xlink:href="#a" />
    </mask>
  </defs>
  <g fill="none" fill-rule="evenodd">
    <use fill="#9ed2ce" xlink:href="#a" />
    <path d="m28.412378 83.805963h249.175245v141.983303h-249.175245z"
      style="stroke:#4ea39c;stroke-width:4;stroke-linecap:round;stroke-linejoin:round;fill:#a8d8d5;mask:url(#t)" />
    <path d="m30.42415 83.805963h245.151701v6h-245.151701z" fill="#84bfbc" mask="url(#t)" />
    <path d="m30.42415 161.805963h245.151701v6h-245.151701z" fill="#93cac7" mask="url(#t)" />
    <rect height="2" rx="1"
      style="stroke:#66b2ac;stroke-width:2;stroke-linecap:round;stroke-linejoin:round;fill:#8ecac6;mask:url(#t)"
      width="24" x="36" y="94" />
    <rect height="2" rx="1"
      style="stroke:#66b2ac;stroke-width:2;stroke-linecap:round;stroke-linejoin:round;fill:#8ecac6;mask:url(#t)"
      width="24" x="69" y="94" />
    <path d="m196 85.816733h30v86.183267h-30z" fill="#84bfbc" mask="url(#t)" />
    <rect height="2" rx="1"
      style="stroke:#66b2ac;stroke-width:2;stroke-linecap:round;stroke-linejoin:round;fill:#8ecac6;mask:url(#t)"
      width="24" x="213" y="94" />
    <rect height="2" rx="1"
      style="stroke:#66b2ac;stroke-width:2;stroke-linecap:round;stroke-linejoin:round;fill:#8ecac6;mask:url(#t)"
      width="24" x="246" y="94" />
    <g stroke="#4ea39c">
      <g stroke-linecap="round" stroke-linejoin="round" stroke-width="2">
        <path d="m34 63h3v14h-3z" fill="#8ecac6" mask="url(#t)" />
        <path d="m44 63h3v14h-3z" fill="#8ecac6" mask="url(#t)" />
        <path d="m54 63h3v14h-3z" fill="#8ecac6" mask="url(#t)" />
        <path d="m64 63h3v14h-3z" fill="#8ecac6" mask="url(#t)" />
        <path d="m74 63h3v14h-3z" fill="#8ecac6" mask="url(#t)" />
        <path d="m84 63h3v14h-3z" fill="#8ecac6" mask="url(#t)" />
        <path d="m94 63h3v14h-3z" fill="#8ecac6" mask="url(#t)" />
        <path d="m209 63h3v14h-3z" fill="#8ecac6" mask="url(#t)" />
        <path d="m219 63h3v14h-3z" fill="#8ecac6" mask="url(#t)" />
        <path d="m229 63h3v14h-3z" fill="#8ecac6" mask="url(#t)" />
        <path d="m239 63h3v14h-3z" fill="#8ecac6" mask="url(#t)" />
        <path d="m249 63h3v14h-3z" fill="#8ecac6" mask="url(#t)" />
        <path d="m259 63h3v14h-3z" fill="#8ecac6" mask="url(#t)" />
        <path d="m269 63h3v14h-3z" fill="#8ecac6" mask="url(#t)" />
        <path d="m34 162h3v14h-3z" fill="#8ecac6" mask="url(#t)" />
        <path d="m44 162h3v14h-3z" fill="#8ecac6" mask="url(#t)" />
        <path d="m54 162h3v14h-3z" fill="#8ecac6" mask="url(#t)" />
        <path d="m64 162h3v14h-3z" fill="#8ecac6" mask="url(#t)" />
        <path d="m74 162h3v14h-3z" fill="#8ecac6" mask="url(#t)" />
        <path d="m84 162h3v14h-3z" fill="#8ecac6" mask="url(#t)" />
        <path d="m94 162h3v14h-3z" fill="#8ecac6" mask="url(#t)" />
        <path d="m209 162h3v14h-3z" fill="#8ecac6" mask="url(#t)" />
        <path d="m219 162h3v14h-3z" fill="#8ecac6" mask="url(#t)" />
        <path d="m229 162h3v14h-3z" fill="#8ecac6" mask="url(#t)" />
        <path d="m239 162h3v14h-3z" fill="#8ecac6" mask="url(#t)" />
        <path d="m249 162h3v14h-3z" fill="#8ecac6" mask="url(#t)" />
        <path d="m259 162h3v14h-3z" fill="#8ecac6" mask="url(#t)" />
        <path d="m269 162h3v14h-3z" fill="#8ecac6" mask="url(#t)" />
        <path d="m32.365029 74.385788h241.269943v10.027923h-241.269943z" fill="#b5e3e0"
          mask="url(#t)" />
        <path d="m32.365029 60.385788h241.269943v4.03h-241.269943z" fill="#b5e3e0" mask="url(#t)" />
        <path d="m29.23809 160.385788h247.523819v4.03h-247.523819z" fill="#b5e3e0" mask="url(#t)" />
        <path d="m19.910717 79.413711h266.178567v5h-266.178567z" fill="#93cbc8" mask="url(#t)" />
      </g>
      <path d="m28.412378 172.234235h249.175245v53.555031h-249.175245z" fill="#95ccc8"
        mask="url(#t)" stroke-width="3" />
      <path d="m28.412378 180.776229h249.175245v45.013037h-249.175245z" fill="#8fcac7"
        mask="url(#t)" stroke-width="3" />
    </g>
    <path d="m29.887283 183.805963h246.225433v6h-246.225433z" fill="#84bfbc" mask="url(#t)" />
    <path d="m197 182.269217h30v86.183267h-30z" fill="#84bfbc" mask="url(#t)" />
    <path d="m23 177h260v6h-260z"
      style="stroke:#4ea39c;stroke-width:2;stroke-linecap:round;stroke-linejoin:round;fill:#a8d8d5;mask:url(#t)" />
    <path d="m100 59.0060233 53-25.5168859 53 25.5168859v151.7832427h-106z"
      style="stroke:#4ea39c;stroke-width:4;stroke-linecap:round;stroke-linejoin:round;fill:#abdfdb;mask:url(#t)" />
    <path
      d="m104.519131 64.3891767 48.480869-23.3411469 48.480869 23.3411469v138.8411973h-96.961738z"
      style="stroke:#4ea39c;stroke-width:4;stroke-linecap:round;stroke-linejoin:round;fill:#8ecac6;mask:url(#t)" />
    <circle cx="145.5" cy="52.5" fill="#66b2ab" mask="url(#t)" r="1.5" />
    <circle cx="149.5" cy="52.5" fill="#66b2ab" mask="url(#t)" r="1.5" />
    <circle cx="153.5" cy="52.5" fill="#66b2ab" mask="url(#t)" r="1.5" />
    <circle cx="157.5" cy="52.5" fill="#66b2ab" mask="url(#t)" r="1.5" />
    <circle cx="161.5" cy="52.5" fill="#66b2ab" mask="url(#t)" r="1.5" />
    <path d="m100 59.006023h106v151.783243h-106z"
      style="stroke:#4ea39c;stroke-width:4;stroke-linecap:round;stroke-linejoin:round;fill:#8ecac6;mask:url(#t)" />
    <g fill="#74b9b4">
      <path d="m192.5 73.5h5v8h-5z" mask="url(#t)" transform="matrix(0 1 -1 0 272.5 -117.5)" />
      <path d="m186.5 80.5h5v8h-5z" mask="url(#t)" transform="matrix(0 1 -1 0 273.5 -104.5)" />
      <path d="m119.5 80.5h5v8h-5z" mask="url(#t)" transform="matrix(0 1 -1 0 206.5 -37.5)" />
      <path d="m181.5 73.5h5v8h-5z" mask="url(#t)" transform="matrix(0 1 -1 0 261.5 -106.5)" />
      <path d="m262.5 188.5h5v8h-5z" mask="url(#t)" transform="matrix(0 1 -1 0 457.5 -72.5)" />
      <path d="m256.5 195.5h5v8h-5z" mask="url(#t)" transform="matrix(0 1 -1 0 458.5 -59.5)" />
      <path d="m251.5 188.5h5v8h-5z" mask="url(#t)" transform="matrix(0 1 -1 0 446.5 -61.5)" />
      <path d="m230.5 198.5h5v8h-5z" mask="url(#t)" transform="matrix(0 1 -1 0 435.5 -30.5)" />
      <path d="m224.5 205.5h5v8h-5z" mask="url(#t)" transform="matrix(0 1 -1 0 436.5 -17.5)" />
      <path d="m226 200v5h-8v-5z" mask="url(#t)" />
      <path d="m86.5 188.5h5v8h-5z" mask="url(#t)" transform="matrix(0 1 -1 0 281.5 103.5)" />
      <path d="m80.5 195.5h5v8h-5z" mask="url(#t)" transform="matrix(0 1 -1 0 282.5 116.5)" />
      <path d="m75.5 188.5h5v8h-5z" mask="url(#t)" transform="matrix(0 1 -1 0 270.5 114.5)" />
      <path d="m41.5 198.5h5v8h-5z" mask="url(#t)" transform="matrix(0 1 -1 0 246.5 158.5)" />
      <path d="m116.5 120.5h5v8h-5z" mask="url(#t)" transform="matrix(0 1 -1 0 243.5 5.5)" />
      <path d="m111.5 113.5h5v8h-5z" mask="url(#t)" transform="matrix(0 1 -1 0 231.5 3.5)" />
    </g>
    <path d="m100 143.200543h106v67.588723h-106z" fill="#9bd0cd" mask="url(#t)" stroke="#4ea39c"
      stroke-width="3" />
    <path d="m101.415042 140.891266h103.169915v6.217469h-103.169915z" fill="#80c0bb" mask="url(#t)" />
    <g
      style="stroke:#4ea39c;stroke-width:4;fill:#87c8c3;stroke-linecap:round;stroke-linejoin:round;mask:url(#t)">
      <use mask="url(#c)" xlink:href="#b" />
    </g>
    <path d="m96.136835 135.897544h113.72633v4.204911h-113.72633z"
      style="stroke:#4ea39c;stroke-width:2;stroke-linecap:round;stroke-linejoin:round;fill:#a8d8d5;mask:url(#t)" />
    <path d="m101.850203 65.891266h102.299595v6.217469h-102.299595z" fill="#80c0bb" mask="url(#t)" />
    <path d="m96.215837 64.835h113.568326v4.33h-113.568326z"
      style="stroke:#4ea39c;stroke-width:2;stroke-linecap:round;stroke-linejoin:round;fill:#a8d8d5;mask:url(#t)" />
    <path d="m197 185.055853h2v19h-2z" fill="#80c0bb" mask="url(#t)" />
    <path d="m201 185.055853h2v19h-2z" fill="#80c0bb" mask="url(#t)" />
    <path d="m103 185.055853h2v19h-2z" fill="#80c0bb" mask="url(#t)" />
    <path d="m107 185.055853h2v19h-2z" fill="#80c0bb" mask="url(#t)" />
    <path d="m150 185.055853h2v19h-2z" fill="#80c0bb" mask="url(#t)" />
    <path d="m154 185.055853h2v19h-2z" fill="#80c0bb" mask="url(#t)" />
    <path d="m113.542032 156.789266 16.457968-5.484912 16.457968 5.484912v47h-32.915936z"
      style="stroke:#4ea39c;stroke-width:3;stroke-linecap:round;stroke-linejoin:round;fill:#95ccc8;mask:url(#t)" />
    <path d="m159.542032 156.789266 16.457968-5.614244 16.457968 5.614244v47h-32.915936z"
      style="stroke:#4ea39c;stroke-width:3;stroke-linecap:round;stroke-linejoin:round;fill:#95ccc8;mask:url(#t)" />
    <path d="m197.5 153.5h5v8h-5z" fill="#74b9b4" mask="url(#t)"
      transform="matrix(0 1 -1 0 357.5 -42.5)" />
    <path d="m107.5 146.5h5v8h-5z" fill="#74b9b4" mask="url(#t)"
      transform="matrix(0 1 -1 0 260.5 40.5)" />
    <path d="m192.5 146.5h5v8h-5z" fill="#74b9b4" mask="url(#t)"
      transform="matrix(0 1 -1 0 345.5 -44.5)" />
    <g
      style="stroke:#4ea39c;stroke-width:4;fill:#77c0bc;stroke-linecap:round;stroke-linejoin:round;mask:url(#t)">
      <use mask="url(#e)" xlink:href="#d" />
    </g>
    <g
      style="stroke:#4ea39c;stroke-width:4;fill:#77c0bc;stroke-linecap:round;stroke-linejoin:round;mask:url(#t)">
      <use mask="url(#g)" xlink:href="#f" />
    </g>
    <path d="m176 158.700144v50.235781" mask="url(#t)" stroke="#4ea39c" stroke-width="2" />
    <path d="m130 158.700144v50.235781" mask="url(#t)" stroke="#4ea39c" stroke-width="2" />
    <path d="m132.5 158.700144v20.235781" mask="url(#t)" stroke="#4ea39c" />
    <path d="m178.5 158.700144v20.235781" mask="url(#t)" stroke="#4ea39c" />
    <circle cx="155.395875" cy="102.895875" fill="#80c0bb" mask="url(#t)" r="25.895875" />
    <circle cx="153" cy="100.5" r="23.5"
      style="stroke:#4ea39c;stroke-width:4;stroke-linecap:round;stroke-linejoin:round;fill:#a8d8d5;mask:url(#t)" />
    <circle cx="153" cy="100.5" r="18.706069"
      style="stroke:#4ea39c;stroke-width:2;stroke-linecap:round;stroke-linejoin:round;fill:#8dcdc8;mask:url(#t)" />
    <circle cx="154.029823" cy="101.529823" fill="#a8d8d5" mask="url(#t)" r="16.841958" />
    <ellipse cx="108.172561" cy="297.847014" fill="#83c5c1" mask="url(#t)" rx="210.194142"
      ry="102.847014" stroke="#4ea39c" stroke-width="4" />
    <circle cx="147.5" cy="210.5" fill="#73b8b4" mask="url(#t)" r="1.5" />
    <circle cx="132" cy="223" fill="#73b8b4" mask="url(#t)" r="2" />
    <circle cx="87.5" cy="201.5" fill="#73b8b4" mask="url(#t)" r="1.5" />
    <circle cx="74" cy="205" fill="#73b8b4" mask="url(#t)" r="1" />
    <circle cx="174" cy="214" fill="#73b8b4" mask="url(#t)" r="1" />
    <circle cx="114" cy="214" fill="#73b8b4" mask="url(#t)" r="1" />
    <ellipse cx="283.052632" cy="296.789266" fill="#7bc1bd" mask="url(#t)" rx="210.194142" ry="86"
      stroke="#4ea39c" stroke-width="4" />
    <circle cx="247.5" cy="230.5" fill="#63ada8" mask="url(#t)" r="1.5" />
    <circle cx="187.5" cy="221.5" fill="#63ada8" mask="url(#t)" r="1.5" />
    <circle cx="174" cy="225" fill="#63ada8" mask="url(#t)" r="1" />
    <circle cx="274" cy="234" fill="#63ada8" mask="url(#t)" r="1" />
    <circle cx="214" cy="234" fill="#63ada8" mask="url(#t)" r="1" />
    <g
      style="stroke:#4ea39c;stroke-width:4;fill:#a8d8d5;stroke-linecap:round;stroke-linejoin:round;mask:url(#t)">
      <use mask="url(#i)" xlink:href="#h" />
    </g>
    <g
      style="stroke:#4ea39c;stroke-width:4;fill:#a8d8d5;stroke-linecap:round;stroke-linejoin:round;mask:url(#t)">
      <use mask="url(#k)" xlink:href="#j" />
    </g>
    <g
      style="stroke:#4ea39c;stroke-width:4;fill:#a8d8d5;stroke-linecap:round;stroke-linejoin:round;mask:url(#t)">
      <use mask="url(#m)" xlink:href="#l" />
    </g>
    <g
      style="stroke:#4ea39c;stroke-width:4;fill:#a8d8d5;stroke-linecap:round;stroke-linejoin:round;mask:url(#t)">
      <use mask="url(#o)" xlink:href="#n" />
    </g>
    <g
      style="stroke:#4ea39c;stroke-width:4;fill:#a8d8d5;stroke-linecap:round;stroke-linejoin:round;mask:url(#t)">
      <use mask="url(#q)" xlink:href="#p" />
    </g>
    <g
      style="stroke:#4ea39c;stroke-width:4;fill:#a8d8d5;stroke-linecap:round;stroke-linejoin:round;mask:url(#t)">
      <use mask="url(#s)" xlink:href="#r" />
    </g>
    <path d="m152.419699 88.2354755v13.4920885h11.420818" fill="#a8d8d5" mask="url(#t)"
      stroke="#4ea39c" stroke-width="4" />
    <g mask="url(#t)">
      <g transform="translate(35 107)">
        <path d="m3.992121 3.144131h24v45.013037h-24z" fill="none" stroke="#84bfbc"
          stroke-linecap="round" stroke-linejoin="round" stroke-width="3" />
        <g fill-rule="evenodd">
          <path d="m.992121.144131h24v45.013037h-24z" fill="#8ecac6" stroke="#4ea39c"
            stroke-linecap="round" stroke-linejoin="round" stroke-width="3" />
          <path d="m2.49212122 24 20.99999998-16v7.4936302l-20.99999998 16z" fill="#bae5e2" />
          <path d="m2.49212122 36 20.99999998-16v2.4936302l-20.99999998 16z" fill="#bae5e2" />
          <g fill="#a8d8d5" stroke="#4ea39c" stroke-linecap="round" stroke-linejoin="round"
            stroke-width="2">
            <path d="m13 .56311231v43.88009819" />
            <path d="m25.0572978 22h-23.88009816" />
          </g>
        </g>
      </g>
    </g>
    <g mask="url(#t)">
      <g transform="translate(68 107)">
        <path d="m3.992121 3.144131h24v45.013037h-24z" fill="none" stroke="#84bfbc"
          stroke-linecap="round" stroke-linejoin="round" stroke-width="3" />
        <g fill-rule="evenodd">
          <path d="m.992121.144131h24v45.013037h-24z" fill="#8ecac6" stroke="#4ea39c"
            stroke-linecap="round" stroke-linejoin="round" stroke-width="3" />
          <path d="m2.49212122 24 20.99999998-16v7.4936302l-20.99999998 16z" fill="#bae5e2" />
          <path d="m2.49212122 36 20.99999998-16v2.4936302l-20.99999998 16z" fill="#bae5e2" />
          <g fill="#a8d8d5" stroke="#4ea39c" stroke-linecap="round" stroke-linejoin="round"
            stroke-width="2">
            <path d="m13 .56311231v43.88009819" />
            <path d="m25.0572978 22h-23.88009816" />
          </g>
        </g>
      </g>
    </g>
    <g mask="url(#t)">
      <g transform="translate(212 107)">
        <path d="m3.992121 3.144131h24v45.013037h-24z" fill="none" stroke="#84bfbc"
          stroke-linecap="round" stroke-linejoin="round" stroke-width="3" />
        <g fill-rule="evenodd">
          <path d="m.992121.144131h24v45.013037h-24z" fill="#8ecac6" stroke="#4ea39c"
            stroke-linecap="round" stroke-linejoin="round" stroke-width="3" />
          <path d="m2.49212122 24 20.99999998-16v7.4936302l-20.99999998 16z" fill="#bae5e2" />
          <path d="m2.49212122 36 20.99999998-16v2.4936302l-20.99999998 16z" fill="#bae5e2" />
          <g fill="#a8d8d5" stroke="#4ea39c" stroke-linecap="round" stroke-linejoin="round"
            stroke-width="2">
            <path d="m13 .56311231v43.88009819" />
            <path d="m25.0572978 22h-23.88009816" />
          </g>
        </g>
      </g>
    </g>
    <g mask="url(#t)">
      <g transform="translate(245 107)">
        <path d="m3.992121 3.144131h24v45.013037h-24z" fill="none" stroke="#84bfbc"
          stroke-linecap="round" stroke-linejoin="round" stroke-width="3" />
        <g fill-rule="evenodd">
          <path d="m.992121.144131h24v45.013037h-24z" fill="#8ecac6" stroke="#4ea39c"
            stroke-linecap="round" stroke-linejoin="round" stroke-width="3" />
          <path d="m2.49212122 24 20.99999998-16v7.4936302l-20.99999998 16z" fill="#bae5e2" />
          <path d="m2.49212122 36 20.99999998-16v2.4936302l-20.99999998 16z" fill="#bae5e2" />
          <g fill="#a8d8d5" stroke="#4ea39c" stroke-linecap="round" stroke-linejoin="round"
            stroke-width="2">
            <path d="m13 .56311231v43.88009819" />
            <path d="m25.0572978 22h-23.88009816" />
          </g>
        </g>
      </g>
    </g>
    <path
      d="m331.209805 44.8405067h-60.25 2.506919c4.414457 0 7.993081 3.5907123 7.993081 8 0 4.418278-3.576164 8-7.993081 8h-2.506919 60.25-3.256919c-4.414456 0-7.993081-3.5907123-7.993081-8 0-4.418278 3.576165-8 7.993081-8zm-71.25-8c0-4.418278 3.576165-8 7.993081-8h66.013838c4.414457 0 7.993081 3.5907123 7.993081 8 0 4.418278-3.576164 8-7.993081 8h-66.013838c-4.414456 0-7.993081-3.5907123-7.993081-8zm-12.006919 24h96.013838c4.414457 0 7.993081 3.5907123 7.993081 8 0 4.418278-3.576164 8-7.993081 8h-96.013838c-4.414456 0-7.993081-3.5907123-7.993081-8 0-4.418278 3.576165-8 7.993081-8z"
      fill="#fff" mask="url(#t)" opacity=".431726" />
    <path
      d="m325.25 217.216674h-60.25 2.506919c4.414457 0 7.993081 3.590712 7.993081 8 0 4.418278-3.576165 8-7.993081 8h-2.506919 60.25-3.256919c-4.414457 0-7.993081-3.590713-7.993081-8 0-4.418278 3.576165-8 7.993081-8zm-71.25-8c0-4.418278 3.576165-8 7.993081-8h66.013838c4.414457 0 7.993081 3.590712 7.993081 8 0 4.418278-3.576165 8-7.993081 8h-66.013838c-4.414457 0-7.993081-3.590713-7.993081-8zm-12.006919 24h96.013838c4.414457 0 7.993081 3.590712 7.993081 8 0 4.418278-3.576165 8-7.993081 8h-96.013838c-4.414457 0-7.993081-3.590713-7.993081-8 0-4.418278 3.576165-8 7.993081-8z"
      fill="#fff" mask="url(#t)" opacity=".431726" />
    <path
      d="m62.993081 8.84050673h16.013838c4.4144567 0 7.993081 3.59071227 7.993081 7.99999997 0 4.418278-3.5761646 8-7.993081 8h-16.013838c-4.4144567 0-7.993081-3.5907123-7.993081-8 0-4.418278 3.5761646-7.99999997 7.993081-7.99999997z"
      fill="#fff" mask="url(#t)" opacity=".43" />
    <path
      d="m53.25 145h-50.25 2.50691899c4.41445675 0 7.99308101 3.590712 7.99308101 8 0 4.418278-3.57616457 8-7.99308101 8h-2.50691899 50.25-13.256919c-4.4144567 0-7.993081-3.590712-7.993081-8 0-4.418278 3.5761646-8 7.993081-8zm-81.25-8c0-4.418278 3.5761646-8 7.993081-8h66.013838c4.4144567 0 7.993081 3.590712 7.993081 8 0 4.418278-3.5761646 8-7.993081 8h-66.013838c-4.4144567 0-7.993081-3.590712-7.993081-8zm7.993081 24h96.013838c4.4144567 0 7.993081 3.590712 7.993081 8 0 4.418278-3.5761646 8-7.993081 8h-96.013838c-4.4144567 0-7.993081-3.590712-7.993081-8 0-4.418278 3.5761646-8 7.993081-8z"
      fill="#fff" mask="url(#t)" opacity=".431726" />
  </g>
</svg>